<svg width="16" height="16" viewBox="0 0 16 16" fill="none" xmlns="http://www.w3.org/2000/svg">
<path d="M7.2798 15.3L0.679801 8.7C0.579801 8.6 0.508801 8.49167 0.466801 8.375C0.424801 8.25833 0.404134 8.13333 0.404801 8C0.404801 7.86667 0.425801 7.74167 0.467801 7.625C0.509801 7.50833 0.580468 7.4 0.679801 7.3L7.2798 0.699999C7.46313 0.516666 7.69247 0.421 7.9678 0.413C8.24313 0.405 8.48047 0.500666 8.6798 0.699999C8.8798 0.883333 8.98413 1.11267 8.9928 1.388C9.00147 1.66333 8.90547 1.90067 8.7048 2.1L3.8048 7H14.9798C15.2631 7 15.5008 7.096 15.6928 7.288C15.8848 7.48 15.9805 7.71733 15.9798 8C15.9798 8.28333 15.8841 8.521 15.6928 8.713C15.5015 8.905 15.2638 9.00067 14.9798 9H3.8048L8.7048 13.9C8.88813 14.0833 8.98413 14.3167 8.9928 14.6C9.00147 14.8833 8.90547 15.1167 8.7048 15.3C8.52147 15.5 8.28813 15.6 8.0048 15.6C7.72147 15.6 7.4798 15.5 7.2798 15.3Z" fill="white"/>
</svg>
